<svg width="20" height="15" viewBox="0 0 20 15" fill="none" xmlns="http://www.w3.org/2000/svg">
<g clip-path="url(#clip0_778_148)">
<path d="M18.0952 0H1.90476C0.852789 0 0 0.859607 0 1.91999V12.48C0 13.5404 0.852789 14.4 1.90476 14.4H18.0952C19.1472 14.4 20 13.5404 20 12.48V1.91999C20 0.859607 19.1472 0 18.0952 0Z" fill="white"/>
<path d="M18.2316 0.796875H1.76847C1.23362 0.796875 0.800049 1.2377 0.800049 1.78149V12.6123C0.800049 13.156 1.23362 13.5969 1.76847 13.5969H18.2316C18.7665 13.5969 19.2 13.156 19.2 12.6123V1.78149C19.2 1.2377 18.7665 0.796875 18.2316 0.796875Z" fill="#154889"/>
</g>
<defs>
<clipPath id="clip0_778_148">
<rect width="20" height="14.4" fill="white"/>
</clipPath>
</defs>
</svg>
