<svg width="26" height="15" viewBox="0 0 26 15" fill="none" xmlns="http://www.w3.org/2000/svg">
<g clip-path="url(#clip0_778_142)">
<path d="M24 0H1.92C0.859607 0 0 0.859607 0 1.91999V12.48C0 13.5404 0.859607 14.4 1.92 14.4H24C25.0604 14.4 25.92 13.5404 25.92 12.48L26 7.5L25.92 1.91999C25.92 0.859607 25.0604 0 24 0Z" fill="white"/>
<path d="M24.0321 0.796875H1.76805C1.23343 0.796875 0.800049 1.2377 0.800049 1.78149V12.6123C0.800049 13.156 1.23343 13.5969 1.76805 13.5969H24.0321C24.5667 13.5969 25 13.156 25 12.6123V1.78149C25 1.2377 24.5667 0.796875 24.0321 0.796875Z" fill="#154889"/>
</g>
<defs>
<clipPath id="clip0_778_142">
<rect width="25.92" height="14.4" fill="white"/>
</clipPath>
</defs>
</svg>
