<svg width="32" height="15" viewBox="0 0 32 15" fill="none" xmlns="http://www.w3.org/2000/svg">
<g clip-path="url(#clip0_778_136)">
<path d="M29.3091 0H1.89091C0.846584 0 0 0.859607 0 1.91999V12.48C0 13.5404 0.846584 14.4 1.89091 14.4H29.3091C30.3534 14.4 31.2 13.5404 31.2 12.48V1.91999C31.2 0.859607 30.3534 0 29.3091 0Z" fill="white"/>
<path d="M29.4452 0.796875H1.75488C1.22754 0.796875 0.800049 1.23771 0.800049 1.78149V12.6123C0.800049 13.156 1.22754 13.5969 1.75488 13.5969H29.4452C29.9725 13.5969 30.4 13.156 30.4 12.6123V1.78149C30.4 1.23771 29.9725 0.796875 29.4452 0.796875Z" fill="#154889"/>
</g>
<defs>
<clipPath id="clip0_778_136">
<rect width="31.2" height="14.4" fill="white"/>
</clipPath>
</defs>
</svg>
