<svg width="11" height="11" viewBox="0 0 11 11" fill="none" xmlns="http://www.w3.org/2000/svg">
<path d="M9.30538 7.60895C9.11557 7.60895 8.93594 7.64628 8.76647 7.70398L7.76661 5.74219H6.59389V6.2513H7.45479L7.75305 6.83509L6.93283 8.6713L6.33291 7.25257C6.42442 7.21862 6.50577 7.12698 6.50577 7.01498C6.50577 6.87582 6.39392 6.76042 6.25496 6.76042H5.57709C5.43473 6.76042 5.31949 6.87582 5.31949 7.01498C5.31949 7.15414 5.43473 7.26954 5.57709 7.26954H5.78384L6.54644 9.05144H6.22784C6.10582 8.23686 5.40762 7.60895 4.56028 7.60895C3.62482 7.60895 2.8656 8.36923 2.8656 9.306C2.8656 10.2428 3.62482 11.0031 4.56028 11.0031C5.40762 11.0031 6.10582 10.3751 6.22784 9.56056H7.1023L8.04793 7.41548L8.31568 7.93478C7.88863 8.24365 7.6107 8.74258 7.6107 9.306C7.6107 10.2428 8.36991 11.0031 9.30538 11.0031C10.2408 11.0031 11.0001 10.2428 11.0001 9.306C11.0001 8.36923 10.2408 7.60895 9.30538 7.60895ZM4.56028 10.4939C3.90613 10.4939 3.374 9.96107 3.374 9.306C3.374 8.65094 3.90613 8.11806 4.56028 8.11806C5.1263 8.11806 5.60081 8.51857 5.71605 9.05144H4.22134V9.56056H5.71605C5.60081 10.0934 5.1263 10.4939 4.56028 10.4939ZM9.30538 10.4939C8.65123 10.4939 8.1191 9.96107 8.1191 9.306C8.1191 8.93944 8.28857 8.617 8.54955 8.39978L9.15963 9.5945L9.60703 9.35013L9.00033 8.16219C9.09863 8.13843 9.20031 8.11806 9.30538 8.11806C9.95952 8.11806 10.4917 8.65094 10.4917 9.306C10.4917 9.96107 9.95952 10.4939 9.30538 10.4939Z" fill="#4F4FFF"/>
<path d="M0 8.6087V0H3.5509C4.19449 0 4.74993 0.126104 5.21723 0.378312C5.68732 0.627717 6.04969 0.976605 6.30432 1.42497C6.55896 1.87054 6.68628 2.38897 6.68628 2.98026C6.68628 3.57435 6.55616 4.09417 6.29593 4.53974C6.03849 4.98251 5.67053 5.32579 5.19204 5.56959C4.71355 5.81339 4.14552 5.93529 3.48794 5.93529H1.29696V4.29594H3.10179C3.41519 4.29594 3.67682 4.2413 3.88669 4.13201C4.09935 4.02272 4.26024 3.86999 4.36937 3.67383C4.4785 3.47486 4.53307 3.24367 4.53307 2.98026C4.53307 2.71404 4.4785 2.48425 4.36937 2.29089C4.26024 2.09473 4.09935 1.9434 3.88669 1.83691C3.67402 1.73043 3.41239 1.67718 3.10179 1.67718H2.07766V8.6087H0Z" fill="#4F4FFF"/>
</svg>
