<svg width="20" height="20" viewBox="0 0 20 20" fill="none" xmlns="http://www.w3.org/2000/svg">
<circle cx="10" cy="10" r="10" fill="#FF9595"/>
<path d="M9.7 3.5C6.827 3.5 4.5 3.825 4.5 6.1V12.6C4.50146 12.8726 4.56007 13.1419 4.67202 13.3904C4.78398 13.639 4.94681 13.8613 5.15 14.043V15.2C5.15 15.3724 5.21848 15.5377 5.34038 15.6596C5.46228 15.7815 5.62761 15.85 5.8 15.85H6.45C6.62239 15.85 6.78772 15.7815 6.90962 15.6596C7.03152 15.5377 7.1 15.3724 7.1 15.2V14.55H11C10.6114 13.8517 10.389 13.0732 10.35 12.275C10.3558 11.6994 10.4992 11.1335 10.7684 10.6247C11.0375 10.1158 11.4245 9.67876 11.897 9.35H5.8V6.1H13.6V8.7C13.7082 8.69334 13.8168 8.69334 13.925 8.7C14.2551 8.70105 14.5835 8.74921 14.9 8.843V6.1C14.9 3.825 12.573 3.5 9.7 3.5ZM6.775 11.3C6.96784 11.3 7.15634 11.3572 7.31668 11.4643C7.47702 11.5715 7.60199 11.7237 7.67578 11.9019C7.74958 12.08 7.76889 12.2761 7.73127 12.4652C7.69365 12.6543 7.60079 12.8281 7.46443 12.9644C7.32807 13.1008 7.15434 13.1936 6.96521 13.2313C6.77608 13.2689 6.58004 13.2496 6.40188 13.1758C6.22373 13.102 6.07145 12.977 5.96432 12.8167C5.85718 12.6563 5.8 12.4678 5.8 12.275C5.8 12.0164 5.90272 11.7684 6.08557 11.5856C6.26842 11.4027 6.51641 11.3 6.775 11.3ZM13.925 10C13.3237 10.0068 12.749 10.2486 12.3238 10.6738C11.8986 11.099 11.6568 11.6737 11.65 12.275C11.65 13.965 13.925 16.5 13.925 16.5C13.925 16.5 16.2 13.965 16.2 12.275C16.1932 11.6737 15.9514 11.099 15.5262 10.6738C15.101 10.2486 14.5263 10.0068 13.925 10ZM13.925 13.12C13.7181 13.12 13.5197 13.0378 13.3735 12.8915C13.2272 12.7453 13.145 12.5469 13.145 12.34C13.145 12.1331 13.2272 11.9347 13.3735 11.7885C13.5197 11.6422 13.7181 11.56 13.925 11.56C14.1274 11.5737 14.3179 11.6603 14.4613 11.8037C14.6047 11.9471 14.6913 12.1376 14.705 12.34C14.7096 12.4437 14.6926 12.5471 14.655 12.6439C14.6175 12.7406 14.5602 12.8284 14.4868 12.9018C14.4134 12.9752 14.3256 13.0325 14.2289 13.07C14.1321 13.1076 14.0287 13.1246 13.925 13.12Z" fill="white"/>
</svg>
