<svg width="20" height="20" viewBox="0 0 20 20" fill="none" xmlns="http://www.w3.org/2000/svg">
<circle cx="10" cy="10" r="10" fill="#A2A2A2"/>
<path d="M14.2133 7.9H5.78L5.48667 5.3H14.5133M10 15.05C9.46957 15.05 8.96086 14.8446 8.58579 14.4789C8.21071 14.1132 8 13.6172 8 13.1C8 11.8 10 9.59 10 9.59C10 9.59 12 11.8 12 13.1C12 13.6172 11.7893 14.1132 11.4142 14.4789C11.0391 14.8446 10.5304 15.05 10 15.05ZM4 4L5.33333 15.8495C5.42 16.4995 5.98 17 6.66667 17H13.3333C14 17 14.58 16.4995 14.6667 15.8495L16 4H4Z" fill="white"/>
</svg>
