<svg width="20" height="20" viewBox="0 0 20 20" fill="none" xmlns="http://www.w3.org/2000/svg">
<circle cx="10" cy="10" r="10" fill="#A2A2A2"/>
<path d="M14 11.3333H11.3333V14H8.66667V11.3333H6V8.66667H8.66667V6H11.3333V8.66667H14M14.6667 4H5.33333C4.59333 4 4 4.59333 4 5.33333V14.6667C4 15.0203 4.14048 15.3594 4.39052 15.6095C4.64057 15.8595 4.97971 16 5.33333 16H14.6667C15.0203 16 15.3594 15.8595 15.6095 15.6095C15.8595 15.3594 16 15.0203 16 14.6667V5.33333C16 4.59333 15.4 4 14.6667 4Z" fill="white"/>
</svg>
