<svg width="20" height="20" viewBox="0 0 20 20" fill="none" xmlns="http://www.w3.org/2000/svg">
<circle cx="10" cy="10" r="10" fill="#A2A2A2"/>
<path d="M10 6.79747C10.442 6.79747 10.866 6.59742 11.1785 6.24134C11.4911 5.88526 11.6667 5.40231 11.6667 4.89873C11.6667 4.39516 11.4911 3.91221 11.1785 3.55613C10.866 3.20004 10.442 3 10 3C9.55797 3 9.13405 3.20004 8.82149 3.55613C8.50893 3.91221 8.33333 4.39516 8.33333 4.89873C8.33333 5.40231 8.50893 5.88526 8.82149 6.24134C9.13405 6.59742 9.55797 6.79747 10 6.79747ZM10 9.03797C8.68889 7.6519 6.94444 6.79747 5 6.79747V13.7595C6.94444 13.7595 8.68889 14.6139 10 16C11.3111 14.6139 13.0556 13.7595 15 13.7595V6.79747C13.0556 6.79747 11.3111 7.6519 10 9.03797Z" fill="white"/>
</svg>
