<svg width="20" height="20" viewBox="0 0 20 20" fill="none" xmlns="http://www.w3.org/2000/svg">
<circle cx="10" cy="10" r="10" fill="#A2A2A2"/>
<path d="M6 5.95H14C14.1768 5.95 14.3464 6.01848 14.4714 6.14038C14.5964 6.26228 14.6667 6.42761 14.6667 6.6C14.6667 6.77239 14.5964 6.93772 14.4714 7.05962C14.3464 7.18152 14.1768 7.25 14 7.25H6C5.82319 7.25 5.65362 7.18152 5.5286 7.05962C5.40357 6.93772 5.33333 6.77239 5.33333 6.6C5.33333 6.42761 5.40357 6.26228 5.5286 6.14038C5.65362 6.01848 5.82319 5.95 6 5.95ZM16 4V5.3H4V4H16ZM12 7.9H13.3333V17H12V7.9ZM6.66667 7.9H8V17H6.66667V7.9ZM9.33333 7.9H10.6667V17H9.33333V7.9Z" fill="white"/>
</svg>
