<svg width="20" height="20" viewBox="0 0 20 20" fill="none" xmlns="http://www.w3.org/2000/svg">
<circle cx="10" cy="10" r="10" fill="#A2A2A2"/>
<path d="M9.6295 7.9855C9.6555 8.057 9.675 8.122 9.675 8.2V11.593C9.675 11.918 9.5515 12.23 9.3305 12.4705L7.517 14.453L5.307 12.243L6.1 11.45L7.92 3.559C7.998 3.234 8.2905 3 8.6285 3C9.025 3 9.35 3.325 9.35 3.7215V6.9455C9.246 6.9195 9.1355 6.9 9.025 6.9C8.31 6.9 7.725 7.485 7.725 8.2V10.15C7.725 10.332 7.868 10.475 8.05 10.475C8.232 10.475 8.375 10.332 8.375 10.15V8.2C8.375 7.8425 8.6675 7.55 9.025 7.55C9.1485 7.55 9.2525 7.5955 9.35 7.654C9.428 7.6995 9.4865 7.758 9.545 7.823C9.5645 7.849 9.584 7.875 9.597 7.9075C9.61 7.9335 9.623 7.9595 9.6295 7.9855ZM3.5 14.05L6.1 16L6.8605 15.1745L4.618 12.932L3.5 14.05ZM13.9 11.45L12.08 3.559C12.002 3.234 11.7095 3 11.3715 3C10.975 3 10.65 3.325 10.65 3.7215V6.9455C10.754 6.9195 10.8645 6.9 10.975 6.9C11.69 6.9 12.275 7.485 12.275 8.2V10.15C12.275 10.332 12.132 10.475 11.95 10.475C11.768 10.475 11.625 10.332 11.625 10.15V8.2C11.625 7.8425 11.3325 7.55 10.975 7.55C10.8515 7.55 10.7475 7.5955 10.65 7.654C10.572 7.6995 10.5135 7.758 10.4615 7.823C10.442 7.849 10.416 7.875 10.403 7.9075C10.39 7.9335 10.377 7.9595 10.3705 7.9855C10.3445 8.057 10.325 8.122 10.325 8.2V11.593C10.325 11.918 10.4485 12.23 10.6695 12.4705L12.483 14.453L14.693 12.243L13.9 11.45ZM15.382 12.932L13.1395 15.1745L13.9 16L16.5 14.05L15.382 12.932Z" fill="white"/>
</svg>
