<svg width="20" height="20" viewBox="0 0 20 20" fill="none" xmlns="http://www.w3.org/2000/svg">
<circle cx="10" cy="10" r="10" fill="#A2A2A2"/>
<path d="M9.44444 3V4.625H10.5556V3H9.44444ZM7.71111 3.79083L6.92222 4.55458L8.10556 5.70833L8.88889 4.93917L7.71111 3.79083ZM12.2889 3.79083L11.1111 4.93917L11.8944 5.70833L13.0778 4.56L12.2889 3.79083ZM10 5.70833C9.70532 5.70833 9.4227 5.82247 9.21433 6.02563C9.00595 6.2288 8.88889 6.50435 8.88889 6.79167V7.33333H6.94444C6.57778 7.33333 6.26667 7.56083 6.15556 7.875L5 11.125V15.4583C5 15.602 5.05853 15.7398 5.16272 15.8414C5.26691 15.9429 5.40821 16 5.55556 16H6.11111C6.25845 16 6.39976 15.9429 6.50395 15.8414C6.60814 15.7398 6.66667 15.602 6.66667 15.4583V14.9167H13.3333V15.4583C13.3333 15.602 13.3919 15.7398 13.4961 15.8414C13.6002 15.9429 13.7415 16 13.8889 16H14.4444C14.5918 16 14.7331 15.9429 14.8373 15.8414C14.9415 15.7398 15 15.602 15 15.4583V11.125L13.8444 7.875C13.7333 7.56083 13.4222 7.33333 13.0556 7.33333H11.1111V6.79167C11.1111 6.50435 10.994 6.2288 10.7857 6.02563C10.5773 5.82247 10.2947 5.70833 10 5.70833ZM6.94444 8.14583H13.0556L13.8889 10.5833H6.11111L6.94444 8.14583ZM6.94444 11.6667C7.16546 11.6667 7.37742 11.7523 7.5337 11.9046C7.68998 12.057 7.77778 12.2637 7.77778 12.4792C7.77778 12.6947 7.68998 12.9013 7.5337 13.0537C7.37742 13.2061 7.16546 13.2917 6.94444 13.2917C6.72343 13.2917 6.51147 13.2061 6.35519 13.0537C6.19891 12.9013 6.11111 12.6947 6.11111 12.4792C6.11111 12.2637 6.19891 12.057 6.35519 11.9046C6.51147 11.7523 6.72343 11.6667 6.94444 11.6667ZM13.0556 11.6667C13.2766 11.6667 13.4885 11.7523 13.6448 11.9046C13.8011 12.057 13.8889 12.2637 13.8889 12.4792C13.8889 12.6947 13.8011 12.9013 13.6448 13.0537C13.4885 13.2061 13.2766 13.2917 13.0556 13.2917C12.8345 13.2917 12.6226 13.2061 12.4663 13.0537C12.31 12.9013 12.2222 12.6947 12.2222 12.4792C12.2222 12.2637 12.31 12.057 12.4663 11.9046C12.6226 11.7523 12.8345 11.6667 13.0556 11.6667Z" fill="white"/>
</svg>
