<svg width="20" height="20" viewBox="0 0 20 20" fill="none" xmlns="http://www.w3.org/2000/svg">
<circle cx="10" cy="10" r="10" fill="#FF9595"/>
<path d="M14.1 9.35H6.3V6.1H14.1M10.2 13.9C9.4785 13.9 8.9 13.315 8.9 12.6C8.9 11.8785 9.4785 11.3 10.2 11.3C10.5448 11.3 10.8754 11.437 11.1192 11.6808C11.363 11.9246 11.5 12.2552 11.5 12.6C11.5 12.9448 11.363 13.2754 11.1192 13.5192C10.8754 13.763 10.5448 13.9 10.2 13.9ZM5 12.925C5 13.5284 5.23969 14.107 5.66633 14.5337C6.09298 14.9603 6.67163 15.2 7.275 15.2L6.3 16.175V16.5H14.1V16.175L13.125 15.2C13.7284 15.2 14.307 14.9603 14.7337 14.5337C15.1603 14.107 15.4 13.5284 15.4 12.925V6.1C15.4 3.825 13.073 3.5 10.2 3.5C7.327 3.5 5 3.825 5 6.1V12.925Z" fill="white"/>
</svg>
