<svg width="15" height="15" viewBox="0 0 15 15" fill="none" xmlns="http://www.w3.org/2000/svg">
<g clip-path="url(#clip0_776_108)">
<path d="M12.48 0H1.91999C0.859607 0 0 0.859607 0 1.91999V12.48C0 13.5404 0.859607 14.4 1.91999 14.4H12.48C13.5404 14.4 14.4 13.5404 14.4 12.48V1.91999C14.4 0.859607 13.5404 0 12.48 0Z" fill="#F0CA00"/>
<path d="M12.6154 0.796875H1.78467C1.24088 0.796875 0.800049 1.2377 0.800049 1.78149V12.6123C0.800049 13.1561 1.24088 13.5969 1.78467 13.5969H12.6154C13.1592 13.5969 13.6 13.1561 13.6 12.6123V1.78149C13.6 1.2377 13.1592 0.796875 12.6154 0.796875Z" fill="black"/>
<path d="M11.9384 1.60156H2.46152C1.85633 1.60156 1.59998 1.87567 1.59998 2.4631V11.94C1.59998 12.6008 1.81186 12.8016 2.46152 12.8016H11.9384C12.5903 12.8016 12.8 12.6097 12.8 11.94V2.4631C12.8 1.84899 12.6437 1.60156 11.9384 1.60156Z" fill="#F0CA00"/>
</g>
<defs>
<clipPath id="clip0_776_108">
<rect width="14.4" height="14.4" fill="white"/>
</clipPath>
</defs>
</svg>
