<svg width="36" height="15" viewBox="0 0 36 15" fill="none" xmlns="http://www.w3.org/2000/svg">
<g clip-path="url(#clip0_776_88)">
<path d="M33.6 0H2.39999C1.07451 0 0 1.07452 0 2.4V12C0 13.3255 1.07451 14.4 2.39999 14.4H33.6C34.9255 14.4 36 13.3255 36 12V2.4C36 1.07452 34.9255 0 33.6 0Z" fill="#F0CA00"/>
<path d="M33.6001 0.796875H2.40004C1.51639 0.796875 0.800049 1.51322 0.800049 2.39688V11.9969C0.800049 12.8805 1.51639 13.5969 2.40004 13.5969H33.6001C34.4837 13.5969 35.2 12.8805 35.2 11.9969V2.39688C35.2 1.51322 34.4837 0.796875 33.6001 0.796875Z" fill="black"/>
<path d="M32.8744 1.60156H3.12555C2 1.60156 1.59998 1.88506 1.59998 3.00156V11.4016C1.59998 12.5 2 12.8016 3.12555 12.8016H32.8744C34 12.8016 34.4 12.4206 34.4 11.4016V3.00156C34.4 2 34.0957 1.60156 32.8744 1.60156Z" fill="#F0CA00"/>
</g>
<defs>
<clipPath id="clip0_776_88">
<rect width="36" height="14.4" fill="white"/>
</clipPath>
</defs>
</svg>
