<svg width="20" height="20" viewBox="0 0 20 20" fill="none" xmlns="http://www.w3.org/2000/svg">
<circle cx="10" cy="10" r="10" fill="#A2A2A2"/>
<path d="M14.6667 4H5.33333C4.6 4 4 4.6 4 5.33333V14.6667C4 15.4 4.6 16 5.33333 16H14.6667C15.4 16 16 15.4 16 14.6667V5.33333C16 4.6 15.4 4 14.6667 4ZM14.6667 14.6667H5.33333V5.33333H14.6667V14.6667ZM6.13333 7.13333H9.46667V8.13333H6.13333V7.13333ZM10.6667 12.5333H14V13.5333H10.6667V12.5333ZM10.6667 10.8H14V11.8H10.6667V10.8ZM7.33333 14H8.33333V12.6667H9.66667V11.6667H8.33333V10.3333H7.33333V11.6667H6V12.6667H7.33333V14ZM11.4 9.26667L12.3333 8.33333L13.2667 9.26667L14 8.6L13.0667 7.66667L14 6.73333L13.2667 6L12.3333 6.93333L11.4 6L10.6667 6.73333L11.6 7.66667L10.6667 8.6L11.4 9.26667Z" fill="white"/>
</svg>
