<svg width="20" height="20" viewBox="0 0 20 20" fill="none" xmlns="http://www.w3.org/2000/svg">
<circle cx="10" cy="10" r="10" fill="#A2A2A2"/>
<path d="M15.3363 9.40909C15.3363 12.6886 13.0672 15.7555 10.0181 16.5C6.96904 15.7555 4.69995 12.6886 4.69995 9.40909V5.86364L10.0181 3.5L15.3363 5.86364V9.40909ZM10.0181 15.3182C12.234 14.7273 14.1545 12.0918 14.1545 9.53909V6.63182L10.0181 4.78818L5.88177 6.63182V9.53909C5.88177 12.0918 7.80222 14.7273 10.0181 15.3182ZM9.42722 11.1818H10.609V12.9545H12.3818V10H13.5636L10.0181 7.04545L6.47268 10H7.6545V12.9545H9.42722V11.1818Z" fill="white"/>
</svg>
