<svg width="20" height="20" viewBox="0 0 20 20" fill="none" xmlns="http://www.w3.org/2000/svg">
<circle cx="10" cy="10" r="10" fill="#9DC1FF"/>
<path d="M3.50012 11.6923C3.50012 11.6923 3.50012 9.74242 4.80012 9.74242C5.24212 9.74242 5.74912 9.70992 6.28212 9.62543C6.88012 10.0934 7.72512 10.3924 8.70012 10.3924H8.86262L7.76412 9.28095C7.99162 9.20946 8.21262 9.12496 8.43362 9.03397L9.67512 10.2754C9.92862 10.2234 10.1626 10.1519 10.3771 10.0674L9.05762 8.73499C9.25262 8.6245 9.44112 8.51401 9.62962 8.38402L10.9751 9.74242C11.1701 9.60593 11.3261 9.45644 11.4626 9.30045L10.1431 7.98105C10.2991 7.83806 10.4551 7.68207 10.5981 7.51958L11.8136 8.73499C11.8916 8.53351 11.9501 8.33202 11.9501 8.11754C11.9501 7.56508 11.6576 7.07111 11.1961 6.67464C11.2286 6.61614 11.2676 6.55765 11.3001 6.49265L12.2946 5.99219C12.8471 6.60314 13.9911 7.03861 15.3626 7.12311L15.3951 7.14261H15.8501C15.8501 7.14261 16.5001 7.79256 16.5001 10.0674C16.5001 10.4379 16.5001 10.7628 16.4741 11.0423H14.5501C13.8351 11.0423 12.9771 11.2113 12.1451 11.3673C11.3781 11.5363 10.5851 11.6923 10.0001 11.6923H3.50012ZM15.8501 12.9922C15.8501 12.9922 16.2271 12.9922 16.4091 11.6923H14.5501C13.2501 11.6923 11.3001 12.3422 10.0001 12.3422H3.68212C3.90312 12.7322 4.31912 12.9922 4.80012 12.9922H15.8501Z" fill="white"/>
</svg>
