<svg width="20" height="20" viewBox="0 0 20 20" fill="none" xmlns="http://www.w3.org/2000/svg">
<circle cx="10" cy="10" r="10" fill="#A2A2A2"/>
<path d="M7 5.8L4.6 7V4.6L7 5.8ZM13.6 4.6V7L16 5.8L13.6 4.6ZM9.4 4V6.4L11.8 5.2L9.4 4ZM10.6 13.6H9.4V16C6.34 15.94 4 15.16 4 14.2V8.8C4 7.78 6.7 7 10 7C13.3 7 16 7.78 16 8.8V14.2C16 15.16 13.6 15.94 10.6 16V13.6ZM5.8 8.8C6.64 9.1 8.08 9.4 10 9.4C11.92 9.4 13.36 9.1 14.2 8.8C14.2 8.68 12.52 8.2 10 8.2C7.48 8.2 5.8 8.74 5.8 8.8ZM14.8 9.88C13.72 10.3 11.98 10.6 10 10.6C8.02 10.6 6.28 10.3 5.2 9.88V13.96C5.56 14.2 6.64 14.56 8.2 14.74V12.4H11.8V14.74C13.36 14.56 14.44 14.2 14.8 13.96V9.88Z" fill="white"/>
</svg>
