<svg width="20" height="20" viewBox="0 0 20 20" fill="none" xmlns="http://www.w3.org/2000/svg">
<circle cx="10" cy="10" r="10" fill="#A2A2A2"/>
<path d="M3.5 12.2105C4.55474 11.7368 5.60316 11.2632 6.65789 11.0547V5.89474C6.65789 5.39222 6.85752 4.91029 7.21285 4.55496C7.56818 4.19962 8.05012 4 8.55263 4C9.38 4 10.0811 4.52421 10.34 5.26316H8.55263C8.38513 5.26316 8.22448 5.3297 8.10604 5.44814C7.98759 5.56659 7.92105 5.72723 7.92105 5.89474V6.52632H11.0789V5.89474C11.0789 5.39222 11.2786 4.91029 11.6339 4.55496C11.9892 4.19962 12.4712 4 12.9737 4C13.8011 4 14.5021 4.52421 14.7611 5.26316H12.9737C12.8062 5.26316 12.6455 5.3297 12.5271 5.44814C12.4086 5.56659 12.3421 5.72723 12.3421 5.89474V12.1726C13.6053 11.9705 14.8684 10.9474 16.1316 10.9474V12.2105C14.7295 12.2105 13.3274 13.4737 11.9189 13.4737C10.5168 13.4737 9.11474 12.2105 7.71263 12.2105C6.30421 12.2105 4.90211 12.8421 3.5 13.4737V12.2105ZM11.0789 7.78947H7.92105V9.05263H11.0789V7.78947ZM11.0789 10.3158H7.92105V10.9474C8.97579 11.0484 10.0242 11.7747 11.0789 12.0779V10.3158ZM3.5 14.7368C4.90211 14.1053 6.30421 13.4737 7.71263 13.4737C9.11474 13.4737 10.5168 14.7368 11.9189 14.7368C13.3274 14.7368 14.7295 13.4737 16.1316 13.4737V14.7368C14.7295 14.7368 13.3274 16 11.9189 16C10.5168 16 9.11474 14.7368 7.71263 14.7368C6.30421 14.7368 4.90211 15.3684 3.5 16V14.7368Z" fill="white"/>
</svg>
