<svg width="20" height="20" viewBox="0 0 20 20" fill="none" xmlns="http://www.w3.org/2000/svg">
<circle cx="10" cy="10" r="10" fill="#A2A2A2"/>
<path d="M7.07505 3C7.41983 3 7.75049 3.13696 7.99429 3.38076C8.23808 3.62456 8.37505 3.95522 8.37505 4.3C8.37505 4.64478 8.23808 4.97544 7.99429 5.21924C7.75049 5.46304 7.41983 5.6 7.07505 5.6C6.73027 5.6 6.39961 5.46304 6.15581 5.21924C5.91201 4.97544 5.77505 4.64478 5.77505 4.3C5.77505 3.95522 5.91201 3.62456 6.15581 3.38076C6.39961 3.13696 6.73027 3 7.07505 3ZM6.10005 6.25H8.05005C8.39483 6.25 8.72549 6.38696 8.96929 6.63076C9.21308 6.87456 9.35005 7.20522 9.35005 7.55V11.125H8.37505V16H5.77505V11.125H4.80005V7.55C4.80005 7.20522 4.93701 6.87456 5.18081 6.63076C5.42461 6.38696 5.75527 6.25 6.10005 6.25ZM12.925 3C13.2698 3 13.6005 3.13696 13.8443 3.38076C14.0881 3.62456 14.225 3.95522 14.225 4.3C14.225 4.64478 14.0881 4.97544 13.8443 5.21924C13.6005 5.46304 13.2698 5.6 12.925 5.6C12.5803 5.6 12.2496 5.46304 12.0058 5.21924C11.762 4.97544 11.625 4.64478 11.625 4.3C11.625 3.95522 11.762 3.62456 12.0058 3.38076C12.2496 3.13696 12.5803 3 12.925 3ZM11.95 16V12.1H10L11.6835 7.1665C11.846 6.6335 12.34 6.25 12.925 6.25C13.51 6.25 14.004 6.6335 14.1665 7.1665L15.85 12.1H13.9V16H11.95Z" fill="white"/>
</svg>
